<?xml version="1.0" ?><svg id="Layer_1" style="enable-background:new 0 0 512 512;" version="1.1" viewBox="0 0 512 512" xml:space="preserve" xmlns="http://www.w3.org/2000/svg" xmlns:xlink="http://www.w3.org/1999/xlink"><style type="text/css">
	.st0{fill:#F16723;}
	.st1{fill:#FBD20A;}
	.st2{fill:#4E9BD4;}
	.st3{fill:#FFFFFF;}
	.st4{fill:#FAAF1A;}
	.st5{fill:#3769A5;}
	.st6{fill:#D0481F;}
	.st7{fill:#FFE4B8;}
	.st8{fill:#E7D0A9;}
</style><path class="st0" d="M72.6,288.6c-5.7,0-10.3-4.6-10.3-10.3S66.9,268,72.6,268c5.7,0,10.3,4.6,10.3,10.3S78.3,288.6,72.6,288.6z   M72.6,275c-1.8,0-3.3,1.5-3.3,3.3s1.5,3.3,3.3,3.3c1.8,0,3.3-1.5,3.3-3.3S74.4,275,72.6,275z"/><circle cx="442.9" cy="226" r="2.1"/><circle cx="173.1" cy="22" r="2.1"/><circle cx="456.2" cy="355.7" r="2.1"/><path class="st1" d="M447.8,64.1c-6.6,0-11.9-5.3-11.9-11.9s5.3-11.9,11.9-11.9s11.9,5.3,11.9,11.9S454.4,64.1,447.8,64.1z   M447.8,47.3c-2.7,0-4.9,2.2-4.9,4.9s2.2,4.9,4.9,4.9c2.7,0,4.9-2.2,4.9-4.9S450.5,47.3,447.8,47.3z"/><path class="st0" d="M65.9,365.1h-3.5v-3.5c0-1.9-1.6-3.5-3.5-3.5s-3.5,1.6-3.5,3.5v3.5h-3.5c-1.9,0-3.5,1.6-3.5,3.5  s1.6,3.5,3.5,3.5h3.5v3.5c0,1.9,1.6,3.5,3.5,3.5s3.5-1.6,3.5-3.5v-3.5h3.5c1.9,0,3.5-1.6,3.5-3.5S67.8,365.1,65.9,365.1z"/><circle cx="58.9" cy="36.1" r="3.1"/><circle cx="305.3" cy="36.1" r="3.1"/><circle cx="42.9" cy="314" r="3.1"/><circle cx="446.1" cy="152.2" r="3.1"/><path class="st2" d="M463.2,296.8h-3.5v-3.5c0-1.9-1.6-3.5-3.5-3.5s-3.5,1.6-3.5,3.5v3.5h-3.5c-1.9,0-3.5,1.6-3.5,3.5  s1.6,3.5,3.5,3.5h3.5v3.5c0,1.9,1.6,3.5,3.5,3.5s3.5-1.6,3.5-3.5v-3.5h3.5c1.9,0,3.5-1.6,3.5-3.5S465.1,296.8,463.2,296.8z"/><path class="st1" d="M71.2,166.5h-3.5V163c0-1.9-1.6-3.5-3.5-3.5s-3.5,1.6-3.5,3.5v3.5h-3.5c-1.9,0-3.5,1.6-3.5,3.5s1.6,3.5,3.5,3.5  h3.5v3.5c0,1.9,1.6,3.5,3.5,3.5s3.5-1.6,3.5-3.5v-3.5h3.5c1.9,0,3.5-1.6,3.5-3.5S73.1,166.5,71.2,166.5z"/><path class="st3" d="M128.3,456.6H123c-14.3,0-25.9-11.6-25.9-25.9V82.2c0-14.3,11.6-25.9,25.9-25.9h5.3V456.6z"/><rect class="st4" height="400.3" width="26.4" x="177.1" y="55.4"/><path class="st1" d="M178.5,456.6H140c-13.4,0-24.3-10.9-24.3-24.3V80.6c0-13.4,10.9-24.3,24.3-24.3h38.5V456.6z"/><rect class="st3" height="400.3" width="20.2" x="202" y="56.3"/><rect class="st5" height="400.3" width="30.6" x="281.1" y="55.4"/><rect class="st2" height="400.3" width="63.1" x="222.1" y="56.3"/><rect class="st3" height="400.3" width="20.2" x="308.4" y="56.3"/><path class="st6" d="M385.9,455.7h-7.7V55.4h7.7c16.9,0,30.6,13.7,30.6,30.6v339.1C416.5,442,402.8,455.7,385.9,455.7z"/><path class="st0" d="M366,456.6h-37.4V56.3H366c14.3,0,26,11.6,26,26v348.4C391.9,444.9,380.3,456.6,366,456.6z"/><path class="st3" d="M128.3,105.9c-1.9,0-3.5-1.6-3.5-3.5c0-15.5,12.6-28.1,28.1-28.1c1.9,0,3.5,1.6,3.5,3.5s-1.6,3.5-3.5,3.5  c-11.6,0-21.1,9.5-21.1,21.1C131.8,104.3,130.2,105.9,128.3,105.9z"/><path class="st3" d="M128.3,124.3c-1.9,0-3.5-1.6-3.5-3.5v-5.5c0-1.9,1.6-3.5,3.5-3.5s3.5,1.6,3.5,3.5v5.5  C131.8,122.7,130.2,124.3,128.3,124.3z"/><path class="st3" d="M128.3,388.5c-1.9,0-3.5-1.6-3.5-3.5v-32.8c0-1.9,1.6-3.5,3.5-3.5s3.5,1.6,3.5,3.5V385  C131.8,386.9,130.2,388.5,128.3,388.5z"/><path class="st3" d="M236,105.9c-1.9,0-3.5-1.6-3.5-3.5c0-15.5,12.6-28.1,28.1-28.1c1.9,0,3.5,1.6,3.5,3.5s-1.6,3.5-3.5,3.5  c-11.6,0-21.1,9.5-21.1,21.1C239.5,104.3,237.9,105.9,236,105.9z"/><path class="st3" d="M236,124.3c-1.9,0-3.5-1.6-3.5-3.5v-5.5c0-1.9,1.6-3.5,3.5-3.5s3.5,1.6,3.5,3.5v5.5  C239.5,122.7,237.9,124.3,236,124.3z"/><path class="st3" d="M236,388.5c-1.9,0-3.5-1.6-3.5-3.5v-32.8c0-1.9,1.6-3.5,3.5-3.5s3.5,1.6,3.5,3.5V385  C239.5,386.9,237.9,388.5,236,388.5z"/><path class="st3" d="M341.6,105.9c-1.9,0-3.5-1.6-3.5-3.5c0-15.5,12.6-28.1,28.1-28.1c1.9,0,3.5,1.6,3.5,3.5s-1.6,3.5-3.5,3.5  c-11.6,0-21.1,9.5-21.1,21.1C345.1,104.3,343.5,105.9,341.6,105.9z"/><path class="st3" d="M341.6,124.3c-1.9,0-3.5-1.6-3.5-3.5v-5.5c0-1.9,1.6-3.5,3.5-3.5s3.5,1.6,3.5,3.5v5.5  C345.1,122.7,343.5,124.3,341.6,124.3z"/><path class="st3" d="M341.6,388.5c-1.9,0-3.5-1.6-3.5-3.5v-32.8c0-1.9,1.6-3.5,3.5-3.5s3.5,1.6,3.5,3.5V385  C345.1,386.9,343.5,388.5,341.6,388.5z"/><path class="st7" d="M200.2,277.1h-99.7c-1.9,0-3.4-1.5-3.4-3.4v-91.3c0-1.9,1.5-3.4,3.4-3.4h99.7c1.9,0,3.4,1.5,3.4,3.4v91.3  C203.6,275.5,202,277.1,200.2,277.1z"/><path class="st7" d="M306.6,277.1H207c-1.9,0-3.4-1.5-3.4-3.4v-91.3c0-1.9,1.5-3.4,3.4-3.4h99.7c1.9,0,3.4,1.5,3.4,3.4v91.3  C310,275.5,308.5,277.1,306.6,277.1z"/><rect class="st7" height="98.1" width="106.5" x="310" y="180.3"/><rect class="st3" height="94.7" width="18.6" x="97.1" y="180.3"/><rect class="st3" height="94.7" width="16.9" x="205.2" y="180.3"/><rect class="st3" height="94.7" width="16.9" x="311.7" y="180.3"/><rect class="st8" height="94.7" width="19.9" x="391.9" y="180.3"/><rect class="st8" height="94.7" width="20" x="285.2" y="180.7"/><rect class="st8" height="94.7" width="19.9" x="178.5" y="180.7"/><path d="M181.1,217h-61.5c-3.3,0-6-2.7-6-6s2.7-6,6-6h61.5c3.3,0,6,2.7,6,6S184.4,217,181.1,217z"/><path d="M181.1,239h-61.5c-3.3,0-6-2.7-6-6s2.7-6,6-6h61.5c3.3,0,6,2.7,6,6S184.4,239,181.1,239z"/><circle class="st3" cx="363.3" cy="414.3" r="14.9"/><g><path d="M390.6,50.3H310c-3.3,0-6,2.7-6,6v127.5v91.3v181.4c0,3.3,2.7,6,6,6h80.6c17.6,0,31.9-14.3,31.9-31.9v-81.3   c0-3.3-2.7-6-6-6s-6,2.7-6,6v81.3c0,11-8.9,19.9-19.9,19.9H316v-166h94.5v50.2c0,3.3,2.7,6,6,6s6-2.7,6-6V275v-91.2V82.2   C422.5,64.6,408.2,50.3,390.6,50.3z M410.5,272.5H316v-86.1h94.5V272.5z M410.5,174.4H316V62.3h74.6c11,0,19.9,8.9,19.9,19.9V174.4   z"/><path d="M332.5,217H394c3.3,0,6-2.7,6-6s-2.7-6-6-6h-61.5c-3.3,0-6,2.7-6,6S329.2,217,332.5,217z"/><path d="M332.5,239H394c3.3,0,6-2.7,6-6s-2.7-6-6-6h-61.5c-3.3,0-6,2.7-6,6S329.2,239,332.5,239z"/><path d="M342.4,414.3c0,11.5,9.4,20.9,20.9,20.9s20.9-9.4,20.9-20.9s-9.4-20.9-20.9-20.9S342.4,402.8,342.4,414.3z M372.2,414.3   c0,4.9-4,8.9-8.9,8.9s-8.9-4-8.9-8.9s4-8.9,8.9-8.9S372.2,409.4,372.2,414.3z"/></g><circle class="st3" cx="150.3" cy="414.3" r="14.9"/><g><path d="M97.1,358.2c3.3,0,6-2.7,6-6v-17.6c0-3.3-2.7-6-6-6s-6,2.7-6,6v17.6C91.1,355.5,93.8,358.2,97.1,358.2z"/><path d="M203.6,50.3H123c-17.6,0-31.9,14.3-31.9,31.9v33.1c0,3.3,2.7,6,6,6s6-2.7,6-6V82.2c0-11,8.9-19.9,19.9-19.9h74.6v112.1   h-94.5V129c0-3.3-2.7-6-6-6s-6,2.7-6,6v54.8v91.3v45.1c0,3.3,2.7,6,6,6s6-2.7,6-6v-35.7h94.5v166.1H123c-11,0-19.9-8.9-19.9-19.9   v-63c0-3.3-2.7-6-6-6s-6,2.7-6,6v63c0,17.6,14.3,31.9,31.9,31.9h80.6c3.3,0,6-2.7,6-6V275v-91.2V56.3   C209.6,53,206.9,50.3,203.6,50.3z M197.6,272.5h-94.5v-86.1h94.5V272.5z"/><path d="M171.2,414.3c0-11.5-9.4-20.9-20.9-20.9s-20.9,9.4-20.9,20.9s9.4,20.9,20.9,20.9S171.2,425.8,171.2,414.3z M141.4,414.3   c0-4.9,4-8.9,8.9-8.9c4.9,0,8.9,4,8.9,8.9s-4,8.9-8.9,8.9C145.4,423.2,141.4,419.2,141.4,414.3z"/></g><circle class="st3" cx="256.8" cy="414.3" r="14.9"/><g><path d="M310.1,50.3H203.6c-3.3,0-6,2.7-6,6v127.5v91.3v181.5c0,3.3,2.7,6,6,6h106.5c3.3,0,6-2.7,6-6V275v-91.2V56.3   C316.1,53,313.4,50.3,310.1,50.3z M304.1,450.6h-94.5V284.5h94.5V450.6z M304.1,272.5h-94.5v-86.1h94.5V272.5z M304.1,174.4h-94.5   V62.3h94.5V174.4z"/><path d="M226.1,217h61.5c3.3,0,6-2.7,6-6s-2.7-6-6-6h-61.5c-3.3,0-6,2.7-6,6S222.8,217,226.1,217z"/><path d="M226.1,239h61.5c3.3,0,6-2.7,6-6s-2.7-6-6-6h-61.5c-3.3,0-6,2.7-6,6S222.8,239,226.1,239z"/><path d="M256.8,435.2c11.5,0,20.9-9.4,20.9-20.9s-9.4-20.9-20.9-20.9s-20.9,9.4-20.9,20.9S245.3,435.2,256.8,435.2z M256.8,405.4   c4.9,0,8.9,4,8.9,8.9s-4,8.9-8.9,8.9s-8.9-4-8.9-8.9S251.9,405.4,256.8,405.4z"/></g></svg>