<?xml version="1.0" ?><svg id="Layer_1" style="enable-background:new 0 0 512 512;" version="1.1" viewBox="0 0 512 512" xml:space="preserve" xmlns="http://www.w3.org/2000/svg" xmlns:xlink="http://www.w3.org/1999/xlink"><style type="text/css">
	.st0{fill:#F16723;}
	.st1{fill:#4E9BD4;}
	.st2{fill:#FBD20A;}
	.st3{fill:#FFFFFF;}
	.st4{fill:#E7D0A9;}
	.st5{fill:#FFE4B8;}
</style><g><path class="st0" d="M474.2,327.2h-3.5v-3.5c0-1.9-1.6-3.5-3.5-3.5s-3.5,1.6-3.5,3.5v3.5h-3.5c-1.9,0-3.5,1.6-3.5,3.5   s1.6,3.5,3.5,3.5h3.5v3.5c0,1.9,1.6,3.5,3.5,3.5s3.5-1.6,3.5-3.5v-3.5h3.5c1.9,0,3.5-1.6,3.5-3.5S476.1,327.2,474.2,327.2z"/><path class="st1" d="M241,56.8h-3.5v-3.5c0-1.9-1.6-3.5-3.5-3.5s-3.5,1.6-3.5,3.5v3.5H227c-1.9,0-3.5,1.6-3.5,3.5s1.6,3.5,3.5,3.5   h3.5v3.5c0,1.9,1.6,3.5,3.5,3.5s3.5-1.6,3.5-3.5v-3.5h3.5c1.9,0,3.5-1.6,3.5-3.5S242.9,56.8,241,56.8z"/><path class="st0" d="M241,148.9c-5.7,0-10.3-4.6-10.3-10.3c0-5.7,4.6-10.3,10.3-10.3s10.3,4.6,10.3,10.3   C251.3,144.3,246.7,148.9,241,148.9z M241,135.3c-1.8,0-3.3,1.5-3.3,3.3c0,1.8,1.5,3.3,3.3,3.3s3.3-1.5,3.3-3.3   C244.3,136.8,242.8,135.3,241,135.3z"/><circle cx="211.5" cy="152.4" r="2.1"/><circle cx="22.8" cy="227.8" r="2.1"/><circle cx="182.8" cy="315.8" r="2.1"/><circle cx="460.2" cy="109" r="2.1"/><circle cx="452.7" cy="93.9" r="2.1"/><path class="st2" d="M137.6,47.4c-6.6,0-11.9-5.3-11.9-11.9c0-6.6,5.3-11.9,11.9-11.9s11.9,5.3,11.9,11.9   C149.5,42.1,144.2,47.4,137.6,47.4z M137.6,30.6c-2.7,0-4.9,2.2-4.9,4.9c0,2.7,2.2,4.9,4.9,4.9s4.9-2.2,4.9-4.9   C142.5,32.8,140.3,30.6,137.6,30.6z"/><path class="st1" d="M146,308.4c-4.6,0-8.4-3.8-8.4-8.4s3.8-8.4,8.4-8.4s8.4,3.8,8.4,8.4S150.6,308.4,146,308.4z M146,298.6   c-0.8,0-1.4,0.6-1.4,1.4c0,0.8,0.6,1.4,1.4,1.4s1.4-0.6,1.4-1.4C147.4,299.2,146.8,298.6,146,298.6z"/><g><rect class="st3" height="422.4" width="159.7" x="278" y="44.4"/><rect class="st4" height="422.4" width="133.9" x="303.7" y="44.4"/><rect class="st5" height="422.4" width="115.3" x="296.5" y="44.4"/><path d="M437.6,158.4c-3.3,0-6-2.7-6-6v-22.9c0-3.3,2.7-6,6-6s6,2.7,6,6v22.9C443.6,155.7,440.9,158.4,437.6,158.4z"/><path d="M278,197c-3.3,0-6-2.7-6-6V44.4c0-3.3,2.7-6,6-6h159.6c3.3,0,6,2.7,6,6v69.1c0,3.3-2.7,6-6,6s-6-2.7-6-6V50.4H284V191    C284,194.3,281.3,197,278,197z"/><path d="M437.6,472.8H278c-3.3,0-6-2.7-6-6V204.3c0-3.3,2.7-6,6-6s6,2.7,6,6v256.5h147.6V167.9c0-3.3,2.7-6,6-6s6,2.7,6,6v298.9    C443.6,470.1,440.9,472.8,437.6,472.8z"/><path class="st3" d="M312.8,319.3c-1.9,0-3.5-1.6-3.5-3.5V283c0-1.9,1.6-3.5,3.5-3.5s3.5,1.6,3.5,3.5v32.8    C316.3,317.7,314.7,319.3,312.8,319.3z"/><g><path d="M312.8,327.3h-16.9c-3.3,0-6-2.7-6-6s2.7-6,6-6h16.9c3.3,0,6,2.7,6,6S316.1,327.3,312.8,327.3z"/><path d="M312.8,217.7h-16.9c-3.3,0-6-2.7-6-6s2.7-6,6-6h16.9c3.3,0,6,2.7,6,6S316.1,217.7,312.8,217.7z"/><path d="M312.8,108.1h-16.9c-3.3,0-6-2.7-6-6s2.7-6,6-6h16.9c3.3,0,6,2.7,6,6S316.1,108.1,312.8,108.1z"/><path d="M304.3,393.1h-8.4c-3.3,0-6-2.7-6-6s2.7-6,6-6h8.4c3.3,0,6,2.7,6,6S307.6,393.1,304.3,393.1z"/><path d="M304.3,415h-8.4c-3.3,0-6-2.7-6-6s2.7-6,6-6h8.4c3.3,0,6,2.7,6,6S307.6,415,304.3,415z"/><path d="M304.3,371.2h-8.4c-3.3,0-6-2.7-6-6s2.7-6,6-6h8.4c3.3,0,6,2.7,6,6S307.6,371.2,304.3,371.2z"/><path d="M304.3,349.3h-8.4c-3.3,0-6-2.7-6-6s2.7-6,6-6h8.4c3.3,0,6,2.7,6,6S307.6,349.3,304.3,349.3z"/><path d="M304.3,283.5h-8.4c-3.3,0-6-2.7-6-6s2.7-6,6-6h8.4c3.3,0,6,2.7,6,6S307.6,283.5,304.3,283.5z"/><path d="M304.3,305.4h-8.4c-3.3,0-6-2.7-6-6s2.7-6,6-6h8.4c3.3,0,6,2.7,6,6S307.6,305.4,304.3,305.4z"/><path d="M304.3,261.6h-8.4c-3.3,0-6-2.7-6-6c0-3.3,2.7-6,6-6h8.4c3.3,0,6,2.7,6,6C310.3,258.9,307.6,261.6,304.3,261.6z"/><path d="M304.3,239.7h-8.4c-3.3,0-6-2.7-6-6s2.7-6,6-6h8.4c3.3,0,6,2.7,6,6S307.6,239.7,304.3,239.7z"/><path d="M304.3,173.9h-8.4c-3.3,0-6-2.7-6-6s2.7-6,6-6h8.4c3.3,0,6,2.7,6,6S307.6,173.9,304.3,173.9z"/><path d="M304.3,195.8h-8.4c-3.3,0-6-2.7-6-6s2.7-6,6-6h8.4c3.3,0,6,2.7,6,6S307.6,195.8,304.3,195.8z"/><path d="M304.3,152h-8.4c-3.3,0-6-2.7-6-6s2.7-6,6-6h8.4c3.3,0,6,2.7,6,6S307.6,152,304.3,152z"/><path d="M304.3,130.1h-8.4c-3.3,0-6-2.7-6-6s2.7-6,6-6h8.4c3.3,0,6,2.7,6,6S307.6,130.1,304.3,130.1z"/></g></g><g><path class="st5" d="M230.9,231.3L44.8,45.2v422.4h422.4L246.1,246.5 M120.7,226.6l164.7,164.7H120.7V226.6z"/><g><polygon class="st4" points="432.4,466.8 467.2,466.8 44.8,44.4 44.8,79.1    "/></g><g><polygon class="st3" points="63.3,62.9 44.8,44.4 44.8,466.8 63.3,466.8    "/></g><path class="st3" d="M85.3,445.3c-1.9,0-3.5-1.6-3.5-3.5V409c0-1.9,1.6-3.5,3.5-3.5s3.5,1.6,3.5,3.5v32.8    C88.8,443.7,87.2,445.3,85.3,445.3z"/><g><path d="M44.8,282.3c3.3,0,6-2.7,6-6V58.9l154.4,154.4c2.3,2.3,6.1,2.3,8.5,0c2.3-2.3,2.3-6.1,0-8.5L49,40.2     c-1.7-1.7-4.3-2.2-6.5-1.3c-2.2,0.9-3.7,3.1-3.7,5.5v231.9C38.8,279.6,41.5,282.3,44.8,282.3z"/><path d="M44.8,316.2c3.3,0,6-2.7,6-6v-20.5c0-3.3-2.7-6-6-6s-6,2.7-6,6v20.5C38.8,313.5,41.5,316.2,44.8,316.2z"/><path d="M471.4,462.5L223.5,214.6c-2.3-2.3-6.1-2.3-8.5,0c-2.3,2.3-2.3,6.1,0,8.5l237.7,237.7H50.8V323.2c0-3.3-2.7-6-6-6     s-6,2.7-6,6v143.5c0,3.3,2.7,6,6,6h422.4c2.4,0,4.6-1.5,5.5-3.7S473.2,464.2,471.4,462.5z"/><path d="M118.4,220.3c-2.2,0.9-3.7,3.1-3.7,5.5v164.7c0,3.3,2.7,6,6,6h164.7c2.4,0,4.6-1.5,5.5-3.7s0.4-4.8-1.3-6.5L124.9,221.6     C123.2,219.8,120.6,219.3,118.4,220.3z M126.7,240.3l144.2,144.2H126.7V240.3z"/></g><g><path d="M80.3,351.8h-17c-3.3,0-6,2.7-6,6s2.7,6,6,6h17c3.3,0,6-2.7,6-6S83.6,351.8,80.3,351.8z"/><path d="M80.3,242.2h-17c-3.3,0-6,2.7-6,6s2.7,6,6,6h17c3.3,0,6-2.7,6-6S83.6,242.2,80.3,242.2z"/><path d="M63.3,144.6h17c3.3,0,6-2.7,6-6s-2.7-6-6-6h-17c-3.3,0-6,2.7-6,6S60,144.6,63.3,144.6z"/><path d="M71.8,417.5h-8.5c-3.3,0-6,2.7-6,6s2.7,6,6,6h8.5c3.3,0,6-2.7,6-6S75.1,417.5,71.8,417.5z"/><path d="M71.8,439.5h-8.5c-3.3,0-6,2.7-6,6s2.7,6,6,6h8.5c3.3,0,6-2.7,6-6S75.1,439.5,71.8,439.5z"/><path d="M71.8,395.6h-8.5c-3.3,0-6,2.7-6,6s2.7,6,6,6h8.5c3.3,0,6-2.7,6-6S75.1,395.6,71.8,395.6z"/><path d="M71.8,373.7h-8.5c-3.3,0-6,2.7-6,6s2.7,6,6,6h8.5c3.3,0,6-2.7,6-6S75.1,373.7,71.8,373.7z"/><path d="M63.3,319.9h8.5c3.3,0,6-2.7,6-6s-2.7-6-6-6h-8.5c-3.3,0-6,2.7-6,6S60,319.9,63.3,319.9z"/><path d="M63.3,341.9h8.5c3.3,0,6-2.7,6-6s-2.7-6-6-6h-8.5c-3.3,0-6,2.7-6,6S60,341.9,63.3,341.9z"/><path d="M63.3,298h8.5c3.3,0,6-2.7,6-6s-2.7-6-6-6h-8.5c-3.3,0-6,2.7-6,6S60,298,63.3,298z"/><path d="M63.3,276.1h8.5c3.3,0,6-2.7,6-6s-2.7-6-6-6h-8.5c-3.3,0-6,2.7-6,6S60,276.1,63.3,276.1z"/><path d="M63.3,210.3h8.5c3.3,0,6-2.7,6-6s-2.7-6-6-6h-8.5c-3.3,0-6,2.7-6,6S60,210.3,63.3,210.3z"/><path d="M63.3,232.3h8.5c3.3,0,6-2.7,6-6s-2.7-6-6-6h-8.5c-3.3,0-6,2.7-6,6S60,232.3,63.3,232.3z"/><path d="M63.3,188.4h8.5c3.3,0,6-2.7,6-6s-2.7-6-6-6h-8.5c-3.3,0-6,2.7-6,6S60,188.4,63.3,188.4z"/><path d="M63.3,166.5h8.5c3.3,0,6-2.7,6-6s-2.7-6-6-6h-8.5c-3.3,0-6,2.7-6,6S60,166.5,63.3,166.5z"/></g></g></g></svg>